# xmcd
#
# Track frame offsets:
#	150
#	13001
#	26640
#	37173
#	50466
#	64026
#	73920
#	86635
#	102984
#	117006
#	132679
#
# Disc length: 1928 seconds
#
# Revision: 1
# Processed by: cddbd v1.5.2PL0 Copyright (c) Steve Scherf et al.
# Submitted via: audiograbber 1.83.01
#
DISCID=9e07860b
DTITLE=ALONE AT 3AM - Cut Your Gills
DYEAR=2010
DGENRE=
TTITLE0=Turn The Water Off
TTITLE1=We Were Left Here
TTITLE2=Waiting In The Dark
TTITLE3=Across State Lines
TTITLE4=Your Voice Is Behind The Trees
TTITLE5=My Cell
TTITLE6=From Any Bed
TTITLE7=Blackto Cracks
TTITLE8=I Wrote A Verse For Her
TTITLE9=Sections For Burning
TTITLE10=Love Letters Lost
EXTD=
EXTT0=
EXTT1=
EXTT2=
EXTT3=
EXTT4=
EXTT5=
EXTT6=
EXTT7=
EXTT8=
EXTT9=
EXTT10=
PLAYORDER=
